<svg xmlns="http://www.w3.org/2000/svg" width="1200" height="630" viewBox="0 0 1200 630">
  <defs>
    <linearGradient id="sky" x1="0" y1="0" x2="0" y2="1">
      <stop offset="0%" stop-color="#b7e4ff"/>
      <stop offset="60%" stop-color="#e9f7ff"/>
      <stop offset="100%" stop-color="#ffffff"/>
    </linearGradient>
    <linearGradient id="hill1" x1="0" y1="0" x2="0" y2="1">
      <stop offset="0%" stop-color="#76d39a"/>
      <stop offset="100%" stop-color="#4eb980"/>
    </linearGradient>
    <linearGradient id="hill2" x1="0" y1="0" x2="0" y2="1">
      <stop offset="0%" stop-color="#5fc28e"/>
      <stop offset="100%" stop-color="#3fa375"/>
    </linearGradient>
  </defs>

  <rect width="1200" height="630" fill="url(#sky)"/>
  <circle cx="980" cy="110" r="60" fill="#ffd76a" opacity="0.9"/>
  <circle cx="980" cy="110" r="95" fill="#ffd76a" opacity="0.18"/>

  <path d="M0,430 C220,360 340,380 520,420 C690,456 900,430 1200,380 L1200,630 L0,630 Z" fill="url(#hill1)"/>
  <path d="M0,480 C260,420 470,470 690,500 C860,522 1020,520 1200,500 L1200,630 L0,630 Z" fill="url(#hill2)"/>

  <g transform="translate(160,445) scale(1.05)">
    <rect x="-80" y="0" width="160" height="90" rx="8" fill="#1a2b4c"/>
    <g fill="#3d73c9">
      <rect x="-72" y="8" width="32" height="30" rx="3"/>
      <rect x="-32" y="8" width="32" height="30" rx="3"/>
      <rect x="8" y="8" width="32" height="30" rx="3"/>
      <rect x="-72" y="46" width="32" height="30" rx="3"/>
      <rect x="-32" y="46" width="32" height="30" rx="3"/>
      <rect x="8" y="46" width="32" height="30" rx="3"/>
    </g>
    <rect x="-92" y="88" width="184" height="10" fill="#6b7280"/>
    <rect x="-70" y="98" width="8" height="30" fill="#6b7280"/>
    <rect x="62" y="98" width="8" height="30" fill="#6b7280"/>
  </g>

  <g transform="translate(880,390)">
    <rect x="-6" y="0" width="12" height="150" fill="#e5e7eb"/>
    <circle cx="0" cy="0" r="12" fill="#e5e7eb"/>
    <path d="M0,0 L-120,-30 L-115,-40 L0,0" fill="#e5e7eb"/>
    <path d="M0,0 L90,20 L95,10 L0,0" fill="#e5e7eb"/>
    <path d="M0,0 L10,110 L-2,112 L0,0" fill="#e5e7eb"/>
  </g>
  <g transform="translate(1020,410) scale(0.8)">
    <rect x="-6" y="0" width="12" height="150" fill="#e5e7eb"/>
    <circle cx="0" cy="0" r="12" fill="#e5e7eb"/>
    <path d="M0,0 L-120,-30 L-115,-40 L0,0" fill="#e5e7eb"/>
    <path d="M0,0 L90,20 L95,10 L0,0" fill="#e5e7eb"/>
    <path d="M0,0 L10,110 L-2,112 L0,0" fill="#e5e7eb"/>
  </g>

  <g font-family="system-ui, -apple-system, Segoe UI, Roboto, sans-serif" fill="#0b1320">
    <text x="60" y="120" font-size="56" font-weight="700">Building Our Better Future</text>
    <text x="60" y="165" font-size="26" opacity="0.8">Clean energy • Sustainable design • People-first tech</text>
  </g>
</svg>
